<?xml version="1.0" ?><svg id="Layer_1" style="enable-background:new 0 0 512 512;" version="1.1" viewBox="0 0 512 512" xml:space="preserve" xmlns="http://www.w3.org/2000/svg" xmlns:xlink="http://www.w3.org/1999/xlink"><style type="text/css">
	.st0{fill:#F1574A;}
	.st1{fill:#FFFFFF;}
</style><g><path class="st0" d="M512,397.1c0,63.5-51.5,114.9-114.9,114.9H114.9C51.5,512,0,460.5,0,397.1V114.9C0,51.5,51.5,0,114.9,0h282.2   C460.5,0,512,51.5,512,114.9V397.1z"/><g><path class="st1" d="M216.2,236.1c0,0.7-0.1,1.2-0.1,1.7c0,13.3,0,42,0,42s55.2,0,58.2,0c0,4.3-5.1,21.7-21.4,32.7    c-9.5,6.5-20.3,9.4-31.6,10.2c-8,0.5-15.9-0.3-23.6-2.7c-24.3-7.8-42.4-29.8-44.8-56.5c-0.6-6.6-0.2-13.2,1.3-19.7    c7.2-31.6,37.2-55.1,71.5-50c15.2,2.2,24,8.6,32,15.4c10.5-10.5,20.9-20.9,31.6-31.7c-2.6-1.9-8.6-8-19.3-14.1    c-15.9-9.2-33.2-13.8-51.6-14c-3.5,0-6.9,0.2-10.4,0.3c-6.1,0.2-12,1.3-17.9,2.8c-23.5,6-43,18.3-58.3,37.2    c-14.7,18.1-22.6,38.9-24,62.1c-0.6,9.8,0.1,19.6,2.3,29.3c6.1,26.9,20.2,48.7,42.5,65c17.3,12.6,36.7,19.4,58,20.6    c12,0.6,23.9-0.5,35.6-3.5c21.8-5.7,39.9-17.1,53.5-35.2c19.7-26.2,24.5-59.8,18.7-91.7C284.3,236.1,250.3,236.1,216.2,236.1z"/><polygon class="st1" points="450,237.5 413.2,237.5 413.2,200.7 413.2,199.6 412.1,199.6 384.6,199.6 383.5,199.6 383.5,200.7     383.5,237.5 346.6,237.5 345.6,237.5 345.6,238.6 345.6,266.1 345.6,267.2 346.6,267.2 383.5,267.2 383.5,304.1 383.5,305.1     384.6,305.1 412.1,305.1 413.2,305.1 413.2,304.1 413.2,267.2 450,267.2 451.1,267.2 451.1,266.1 451.1,238.6 451.1,237.5   "/></g></g></svg>