<?xml version="1.0" ?><svg id="Layer_1" style="enable-background:new 0 0 512 512;" version="1.1" viewBox="0 0 512 512" xml:space="preserve" xmlns="http://www.w3.org/2000/svg" xmlns:xlink="http://www.w3.org/1999/xlink"><style type="text/css">
	.st0{fill:#1387C8;}
	.st1{fill:#FFFFFF;}
</style><g><path class="st0" d="M512,397.1c0,63.5-51.4,114.9-114.9,114.9H114.9C51.5,512,0,460.6,0,397.1V114.9C0,51.5,51.5,0,114.9,0h282.2   C460.6,0,512,51.5,512,114.9V397.1z"/><g><path class="st1" d="M142.3,212.9h53.4v171.6h-53.4V212.9z M169,127.5c17.1,0,30.9,13.9,30.9,30.9c0,17.1-13.9,31-30.9,31    c-17.1,0-31-13.9-31-31C138.1,141.4,151.9,127.5,169,127.5"/><path class="st1" d="M229.2,212.9h51.2v23.5h0.7c7.1-13.5,24.5-27.7,50.5-27.7c54,0,64,35.5,64,81.7v94.1h-53.3V301    c0-19.9-0.4-45.5-27.7-45.5c-27.8,0-32,21.7-32,44v84.9h-53.3V212.9z"/></g></g></svg>